<?xml version="1.0" encoding="UTF-8" standalone="no"?>
<svg width="1062px" height="199px" viewBox="0 0 1062 199" version="1.1" xmlns="http://www.w3.org/2000/svg" xmlns:xlink="http://www.w3.org/1999/xlink" xmlns:sketch="http://www.bohemiancoding.com/sketch/ns">
    <!-- Generator: Sketch 3.3.3 (12072) - http://www.bohemiancoding.com/sketch -->
    <title>web-large</title>
    <desc>Created with Sketch.</desc>
    <defs></defs>
    <g id="Page-1" stroke="none" stroke-width="1" fill="none" fill-rule="evenodd" sketch:type="MSPage">
        <g id="web-large" sketch:type="MSArtboardGroup">
            <g id="Imported-Layers" sketch:type="MSLayerGroup" transform="translate(10.000000, 6.000000)">
                <path d="M174.021,97.443 L161.177,110.287 C156.447,115.017 148.821,114.854 144.09,110.124 L86.197,52.231 L107.503,30.925 C111.021,27.406 107.676,17.141 106.469,13.106 L173.788,80.425 C178.519,85.156 178.751,92.713 174.021,97.443" id="Fill-1" fill="#2A8ADE" sketch:type="MSShapeGroup"></path>
                <path d="M45.963,98.222 L24.704,76.963 C21.841,74.1 17.974,72.736 13.902,72.736 C13.163,72.736 12.079,72.709 11.669,73.119 L80.683,4.105 C85.413,-0.625 92.784,-0.579 97.515,4.152 L110.358,16.995 C115.089,21.726 115.112,29.073 110.381,33.804 L45.963,98.222" id="Fill-2" fill="#1461B8" sketch:type="MSShapeGroup"></path>
                <path d="M80.22,156.19 C76.701,159.709 75.684,164.754 76.184,169.497 L4.177,97.49 C-0.554,92.759 -0.322,85.109 4.409,80.379 L17.253,67.535 C21.983,62.805 29.851,62.353 34.582,67.084 L101.954,134.456 L80.22,156.19" id="Fill-3" fill="#94CEFC" sketch:type="MSShapeGroup"></path>
                <path d="M139.188,71.465 L160.969,93.245 C163.831,96.108 167.577,97.78 171.649,97.78 C172.388,97.78 173.35,98.114 173.76,97.704 L97.747,173.717 C93.016,178.448 85.181,178.494 80.45,173.763 L67.607,160.92 C62.876,156.189 62.611,148.042 67.341,143.311 L139.188,71.465" id="Fill-4" fill="#46A8F7" sketch:type="MSShapeGroup"></path>
                <path d="M174.021,97.443 L161.177,110.287 C156.447,115.017 148.821,114.854 144.09,110.124 L95.197,61.231 L116.503,39.925 C120.021,36.406 121.988,31.453 120.781,27.418 L173.788,80.425 C178.519,85.156 178.751,92.713 174.021,97.443" id="Fill-5" fill="#2A8ADF" sketch:type="MSShapeGroup"></path>
                <path d="M301.199,38.872 L280.231,57.375 C272.868,47.13 265.374,42.006 257.743,42.006 C254.029,42.006 250.99,43.001 248.627,44.989 C246.263,46.978 245.082,49.22 245.082,51.713 C245.082,54.208 245.925,56.566 247.614,58.791 C249.91,61.758 256.831,68.129 268.377,77.902 C279.18,86.935 285.73,92.63 288.027,94.989 C293.766,100.788 297.834,106.332 300.232,111.622 C302.629,116.915 303.828,122.695 303.828,128.963 C303.828,141.165 299.609,151.243 291.175,159.196 C282.74,167.151 271.74,171.127 258.177,171.127 C247.583,171.127 238.354,168.532 230.493,163.342 C222.631,158.152 215.899,149.995 210.298,138.872 L234.096,124.514 C241.253,137.659 249.489,144.231 258.806,144.231 C263.666,144.231 267.751,142.816 271.06,139.984 C274.368,137.153 276.022,133.885 276.022,130.176 C276.022,126.807 274.772,123.437 272.275,120.065 C269.775,116.696 264.272,111.539 255.765,104.595 C239.558,91.384 229.092,81.188 224.364,74.009 C219.637,66.83 217.276,59.668 217.276,52.522 C217.276,42.209 221.206,33.361 229.069,25.98 C236.931,18.599 246.633,14.908 258.174,14.908 C265.598,14.908 272.668,16.627 279.382,20.065 C286.097,23.503 293.369,29.772 301.199,38.872" id="Fill-6" fill="#1D2935" sketch:type="MSShapeGroup"></path>
                <path d="M322.845,16.829 L350.449,16.829 L350.449,57.375 L366.829,57.375 L366.829,81.137 L350.449,81.137 L350.449,167.386 L322.845,167.386 L322.845,81.137 L308.69,81.137 L308.69,57.375 L322.845,57.375 L322.845,16.829" id="Fill-7" fill="#1D2935" sketch:type="MSShapeGroup"></path>
                <path d="M458.644,57.375 L486.248,57.375 L486.248,167.386 L458.644,167.386 L458.644,155.758 C453.257,160.882 447.853,164.573 442.434,166.831 C437.014,169.087 431.14,170.217 424.81,170.217 C410.605,170.217 398.316,164.707 387.948,153.686 C377.578,142.664 372.395,128.963 372.395,112.583 C372.395,95.596 377.411,81.678 387.443,70.823 C397.476,59.971 409.662,54.544 424.004,54.544 C430.601,54.544 436.794,55.792 442.584,58.285 C448.375,60.78 453.728,64.521 458.644,69.509 L458.644,57.375 L458.644,57.375 Z M429.627,80.025 C421.093,80.025 414.006,83.042 408.362,89.074 C402.719,95.108 399.897,102.843 399.897,112.28 C399.897,121.785 402.768,129.605 408.512,135.738 C414.257,141.873 421.327,144.939 429.726,144.939 C438.393,144.939 445.581,141.923 451.291,135.89 C457.001,129.858 459.858,121.953 459.858,112.179 C459.858,102.608 457.001,94.855 451.291,88.923 C445.581,82.992 438.36,80.025 429.627,80.025 L429.627,80.025 Z" id="Fill-8" fill="#1D2935" sketch:type="MSShapeGroup"></path>
                <path d="M609.416,79.62 L586.436,92.26 C582.117,87.744 577.849,84.61 573.629,82.856 C569.411,81.104 564.468,80.228 558.799,80.228 C548.474,80.228 540.12,83.307 533.744,89.464 C527.365,95.623 524.177,103.514 524.177,113.138 C524.177,122.493 527.247,130.134 533.389,136.056 C539.531,141.979 547.596,144.939 557.584,144.939 C569.936,144.939 579.553,140.727 586.436,132.3 L608.202,147.203 C596.405,162.547 579.755,170.217 558.252,170.217 C538.905,170.217 523.755,164.488 512.802,153.028 C501.847,141.569 496.372,128.155 496.372,112.785 C496.372,102.135 499.033,92.327 504.36,83.362 C509.684,74.398 517.115,67.353 526.655,62.229 C536.192,57.107 546.86,54.544 558.657,54.544 C569.578,54.544 579.385,56.718 588.081,61.066 C596.777,65.414 603.888,71.6 609.416,79.62" id="Fill-9" fill="#1D2935" sketch:type="MSShapeGroup"></path>
                <path d="M617.925,14.908 L645.529,14.908 L645.529,102.731 L686.177,57.375 L720.843,57.375 L673.452,110.101 L726.51,167.386 L692.243,167.386 L645.529,116.685 L645.529,167.386 L617.925,167.386 L617.925,14.908" id="Fill-10" fill="#1D2935" sketch:type="MSShapeGroup"></path>
                <path d="M734.812,14.908 L762.415,14.908 L762.415,167.386 L734.812,167.386 L734.812,14.908 Z" id="Fill-11" fill="#1D2935" sketch:type="MSShapeGroup"></path>
                <path d="M789.977,12.077 C794.817,12.077 798.966,13.831 802.428,17.335 C805.889,20.841 807.622,25.087 807.622,30.075 C807.622,34.996 805.907,39.193 802.479,42.664 C799.051,46.136 794.95,47.871 790.179,47.871 C785.272,47.871 781.087,46.101 777.626,42.562 C774.164,39.024 772.434,34.726 772.434,29.671 C772.434,24.817 774.147,20.671 777.575,17.234 C781.004,13.796 785.136,12.077 789.977,12.077 L789.977,12.077 Z M776.176,57.375 L803.779,57.375 L803.779,167.386 L776.176,167.386 L776.176,57.375 Z" id="Fill-12" fill="#1D2935" sketch:type="MSShapeGroup"></path>
                <path d="M816.429,57.375 L844.033,57.375 L844.033,68.649 C850.292,63.373 855.963,59.703 861.045,57.64 C866.126,55.576 871.328,54.544 876.646,54.544 C887.55,54.544 896.805,58.353 904.412,65.97 C910.806,72.441 914.003,82.014 914.003,94.686 L914.003,167.386 L886.703,167.386 L886.703,119.211 C886.703,106.082 886.113,97.364 884.937,93.054 C883.759,88.745 881.709,85.463 878.783,83.207 C875.857,80.951 872.243,79.823 867.94,79.823 C862.358,79.823 857.567,81.692 853.567,85.428 C849.564,89.166 846.79,94.333 845.244,100.931 C844.436,104.366 844.033,111.805 844.033,123.251 L844.033,167.386 L816.429,167.386 L816.429,57.375" id="Fill-13" fill="#1D2935" sketch:type="MSShapeGroup"></path>
                <path d="M1038.485,120.369 L949.809,120.369 C951.089,128.19 954.511,134.407 960.072,139.024 C965.634,143.642 972.727,145.951 981.357,145.951 C991.67,145.951 1000.534,142.345 1007.949,135.132 L1031.205,146.051 C1025.407,154.276 1018.465,160.359 1010.376,164.302 C1002.287,168.246 992.681,170.217 981.559,170.217 C964.302,170.217 950.247,164.775 939.395,153.887 C928.541,143.002 923.115,129.368 923.115,112.987 C923.115,96.203 928.526,82.267 939.345,71.177 C950.164,60.09 963.728,54.544 980.042,54.544 C997.366,54.544 1011.453,60.09 1022.307,71.177 C1033.16,82.267 1038.587,96.911 1038.587,115.111 L1038.485,120.369 L1038.485,120.369 Z M1010.882,98.63 C1009.058,92.497 1005.462,87.508 1000.094,83.665 C994.726,79.823 988.498,77.902 981.407,77.902 C973.71,77.902 966.958,80.06 961.151,84.372 C957.505,87.07 954.129,91.822 951.022,98.63 L1010.882,98.63 L1010.882,98.63 Z" id="Fill-14" fill="#1D2935" sketch:type="MSShapeGroup"></path>
            </g>
        </g>
    </g>
</svg>